<svg style="position: absolute; width: 0; height: 0;" width="0" height="0" version="1.1" xmlns="http://www.w3.org/2000/svg" xmlns:xlink="http://www.w3.org/1999/xlink">
<defs>
<symbol id="i-comment" viewBox="0 0 984.6 984.6">
	<path class="fil1" d="M141.5 61.5l701.6 0c38.9,0 74.4,16 100,41.6 25.6,25.6 41.5,61.1 41.5,100l0 270.8c0,38.7 -16,74.1 -41.6,99.8 -25.7,25.7 -61.2,41.7 -99.9,41.7l-122.7 0 -227.7 227.7 -18.4 18.4 -43.5 0 0 -246.1 -289.3 0c-38.9,0 -74.3,-15.9 -99.9,-41.6 -25.6,-25.6 -41.6,-61 -41.6,-99.9l0 -270.8c0,-39 15.9,-74.4 41.5,-100 25.7,-25.6 61.1,-41.6 100,-41.6zm701.6 61.6l-701.6 0c-22,0 -42,9 -56.5,23.5 -14.4,14.4 -23.5,34.5 -23.5,56.5l0 270.8c0,21.9 9.1,42 23.6,56.4 14.5,14.5 34.5,23.6 56.4,23.6l350.8 0 0 202.6 202.7 -202.6 148.1 0c22,0 42,-9.1 56.5,-23.5 14.5,-14.5 23.5,-34.6 23.5,-56.5l0 -270.8c0,-22 -9.1,-42 -23.5,-56.5 -14.5,-14.5 -34.5,-23.5 -56.5,-23.5z"/>
</symbol>
<symbol id="i-arrow" viewBox="0 0 71 71">
	<polygon points="58,16 58,36 62,36 62,9 36,9 36,13 55,13 30,38 33,42 "/>
</symbol>
<symbol id="i-x-cross" viewBox="0 0 853.4 853.4">
	<polygon points="178.9,141.2 426.7,389 674.5,141.2 712.2,178.9 464.4,426.7 712.2,674.5 674.5,712.2 426.7,464.4 178.9,712.2 141.2,674.5 389,426.7 141.2,178.9 "/>
</symbol>
</defs>
</svg>
