<?xml version="1.0" encoding="UTF-8"?>
<!DOCTYPE svg PUBLIC "-//W3C//DTD SVG 1.1//EN" "http://www.w3.org/Graphics/SVG/1.1/DTD/svg11.dtd">
<!-- Creator: CorelDRAW 2020 (64-Bit) -->
<svg xmlns="http://www.w3.org/2000/svg" xml:space="preserve" width="75px" height="75px" version="1.1" style="shape-rendering:geometricPrecision; text-rendering:geometricPrecision; image-rendering:optimizeQuality; fill-rule:evenodd; clip-rule:evenodd"
viewBox="0 0 68661 68661"
 xmlns:xlink="http://www.w3.org/1999/xlink"
 xmlns:xodm="http://www.corel.com/coreldraw/odm/2003">
 <defs>
  <style type="text/css">
   <![CDATA[
    .fil0 {fill:#FF0022}
   ]]>
  </style>
 </defs>
 <g id="Слой_x0020_1">
  <metadata id="CorelCorpID_0Corel-Layer"/>
  <path class="fil0" d="M34330 0c18960,0 34331,15370 34331,34330 0,18960 -15371,34331 -34331,34331 -18960,0 -34330,-15371 -34330,-34331 0,-18960 15370,-34330 34330,-34330zm1193 10251l-17523 36954 18000 -9298 -8668 22196c-11352,-3075 -19703,-13448 -19703,-25773 0,-14746 11955,-26701 26701,-26701 14747,0 26702,11955 26702,26701 0,12344 -8377,22728 -19755,25787l6345 -35144 -15706 7603 3607 -22325z"/>
 </g>
</svg>
